<svg width="1440" height="820" viewBox="0 0 1440 820" fill="none" xmlns="http://www.w3.org/2000/svg">
<mask id="path-1-inside-1" fill="white">
<rect width="1440" height="820" rx="10"/>
</mask>
<rect width="1440" height="820" rx="10" stroke="#007BFF" stroke-width="120" mask="url(#path-1-inside-1)"/>
<path d="M318.129 440.909V475.788C318.129 493.227 310.456 499.506 298.248 499.506C286.04 499.506 278.367 493.227 278.367 475.788V343.945C278.367 326.506 286.04 319.879 298.248 319.879C310.456 319.879 318.129 326.506 318.129 343.945V370.105H354.403V346.387C354.403 307.323 334.871 285 297.202 285C259.532 285 240 307.323 240 346.387V473.346C240 512.411 259.532 534.733 297.202 534.733C334.871 534.733 354.403 512.411 354.403 473.346V440.909H318.129ZM462.877 287.79L501.941 531.943H463.225L456.598 487.647H409.512L402.885 531.943H367.657L406.721 287.79H462.877ZM432.532 331.04L414.395 454.512H451.367L433.229 331.04H432.532ZM639.015 531.943H599.951C597.858 525.665 596.463 521.828 596.463 501.947V463.58C596.463 440.909 588.79 432.538 571.35 432.538H558.096V531.943H519.729V287.79H577.628C617.39 287.79 634.481 306.276 634.481 343.945V363.129C634.481 388.242 626.459 404.286 609.368 412.308C628.552 421.028 634.83 439.165 634.83 464.627V502.296C634.83 514.155 635.179 522.875 639.015 531.943ZM576.582 322.669H558.096V397.659H573.094C587.395 397.659 596.114 391.381 596.114 371.849V347.782C596.114 330.343 590.185 322.669 576.582 322.669ZM755.947 287.79L795.012 531.943H756.296L749.669 487.647H702.582L695.955 531.943H660.728L699.792 287.79H755.947ZM725.602 331.04L707.465 454.512H744.437L726.3 331.04H725.602ZM830.501 287.79H791.785L829.455 531.943H886.656L924.325 287.79H889.098L860.148 486.949H859.451L830.501 287.79ZM1016.32 287.79L1055.38 531.943H1016.67L1010.04 487.647H962.954L956.327 531.943H921.099L960.164 287.79H1016.32ZM985.974 331.04L967.837 454.512H1004.81L986.672 331.04H985.974ZM1160.59 531.943H1200V287.79H1165.82V433.933H1165.12L1126.41 287.79H1078.27V531.943H1112.8V355.107H1113.5L1160.59 531.943Z" fill="#007BFF"/>
</svg>
